<?xml version="1.0" encoding="utf-8"?>
<!-- Generator: Adobe Illustrator 18.1.1, SVG Export Plug-In . SVG Version: 6.00 Build 0)  -->
<!DOCTYPE svg PUBLIC "-//W3C//DTD SVG 1.1//EN" "http://www.w3.org/Graphics/SVG/1.1/DTD/svg11.dtd">
<svg version="1.1" id="Layer_1" xmlns="http://www.w3.org/2000/svg" xmlns:xlink="http://www.w3.org/1999/xlink" x="0px" y="0px"
	 viewBox="0 0 652 96.4" enable-background="new 0 0 652 96.4" xml:space="preserve">
<style>
    .logo-fill { fill:#fff; }
</style>
<path class="logo-fill" d="M0,2.5h18.1c1.9,0,3.4,0.4,4.7,1.3c1.3,0.9,2.1,2,2.5,3.4L38,55.6c0.4,1.6,0.9,3.2,1.3,5c0.4,1.8,0.7,3.7,1,5.6
	c0.4-2,0.9-3.9,1.4-5.6c0.5-1.8,1-3.4,1.5-5L58.2,7.2C58.6,6,59.4,4.9,60.7,4c1.3-1,2.8-1.4,4.6-1.4h6.4c1.9,0,3.4,0.4,4.6,1.2
	c1.2,0.8,2.1,2,2.5,3.4l14.9,48.4c0.5,1.5,1,3.1,1.5,4.7c0.5,1.7,1,3.5,1.3,5.4c0.3-1.9,0.7-3.7,1.1-5.4c0.4-1.7,0.7-3.3,1.1-4.8
	l12.8-48.4c0.3-1.2,1.1-2.3,2.4-3.2s2.8-1.4,4.6-1.4h17l-28.7,92.8H87.2L69.7,37.8c-0.3-0.9-0.6-1.9-0.9-2.9
	c-0.3-1.1-0.6-2.2-0.9-3.4c-0.3,1.2-0.6,2.3-0.9,3.4c-0.3,1.1-0.6,2-0.9,2.9L48.2,95.4H28.7L0,2.5z"/>
<path class="logo-fill" d="M156.8,28.3c4.4,0,8.4,0.7,12,2c3.6,1.4,6.8,3.3,9.4,5.9c2.6,2.6,4.7,5.8,6.1,9.5s2.2,8,2.2,12.8c0,1.5-0.1,2.7-0.2,3.6
	c-0.1,0.9-0.4,1.7-0.7,2.2c-0.3,0.6-0.8,0.9-1.4,1.1c-0.6,0.2-1.3,0.3-2.2,0.3h-38.2c0.6,5.5,2.3,9.5,5,12c2.7,2.5,6.2,3.7,10.5,3.7
	c2.3,0,4.3-0.3,5.9-0.8c1.7-0.6,3.1-1.2,4.4-1.8c1.3-0.7,2.5-1.3,3.6-1.8c1.1-0.6,2.2-0.8,3.4-0.8c1.6,0,2.8,0.6,3.6,1.7l5.7,7.1
	c-2,2.3-4.2,4.2-6.6,5.7c-2.4,1.5-4.8,2.6-7.3,3.4c-2.5,0.8-5,1.4-7.5,1.7c-2.5,0.3-4.9,0.5-7.1,0.5c-4.6,0-9-0.8-13.1-2.3
	c-4.1-1.5-7.6-3.7-10.7-6.7c-3-3-5.4-6.7-7.2-11.1c-1.8-4.4-2.6-9.6-2.6-15.4c0-4.4,0.8-8.6,2.3-12.6s3.7-7.4,6.5-10.4
	s6.3-5.3,10.3-7.1C147.2,29.2,151.8,28.3,156.8,28.3z M157.2,41.9c-3.8,0-6.7,1.1-8.9,3.2c-2.1,2.1-3.5,5.2-4.2,9.3h24.7
	c0-1.6-0.2-3.1-0.6-4.6c-0.4-1.5-1.1-2.8-2-4c-0.9-1.2-2.1-2.1-3.6-2.8C161.2,42.3,159.3,41.9,157.2,41.9z"/>
<path class="logo-fill" d="M191.5,95.4V0h19.8v36.3c2.5-2.4,5.3-4.4,8.4-5.8c3.1-1.5,6.8-2.2,11-2.2c3.4,0,6.6,0.7,9.6,2.2c2.9,1.5,5.5,3.7,7.6,6.5
	c2.1,2.9,3.8,6.4,5,10.5c1.2,4.2,1.8,8.9,1.8,14.2c0,5-0.7,9.6-2.1,13.8c-1.4,4.2-3.3,7.9-5.8,11c-2.5,3.1-5.5,5.5-8.9,7.3
	c-3.5,1.7-7.3,2.6-11.5,2.6c-2,0-3.7-0.2-5.3-0.6s-3-0.9-4.3-1.6c-1.3-0.7-2.5-1.5-3.6-2.5c-1.1-1-2.1-2-3.2-3.2l-0.7,3.3
	c-0.3,1.4-0.8,2.3-1.6,2.8c-0.8,0.5-1.8,0.8-3.1,0.8H191.5z M223.8,43.1c-1.4,0-2.8,0.1-3.9,0.4c-1.2,0.3-2.3,0.7-3.3,1.2
	c-1,0.5-1.9,1.2-2.8,1.9c-0.8,0.8-1.7,1.7-2.6,2.7v28c1.5,1.7,3.1,2.8,4.8,3.5c1.7,0.7,3.6,1,5.5,1c1.8,0,3.5-0.4,5-1.1
	c1.5-0.7,2.9-1.9,4-3.5c1.1-1.6,2-3.7,2.6-6.2s1-5.6,1-9.3c0-3.5-0.3-6.4-0.8-8.8c-0.5-2.4-1.2-4.3-2.1-5.8c-0.9-1.5-2-2.5-3.3-3.2
	C226.8,43.4,225.3,43.1,223.8,43.1z"/>
<path class="logo-fill" d="M259.2,95.4V0H279v36.3c2.5-2.4,5.3-4.4,8.4-5.8c3.1-1.5,6.8-2.2,11-2.2c3.4,0,6.6,0.7,9.6,2.2c2.9,1.5,5.5,3.7,7.6,6.5
	c2.1,2.9,3.8,6.4,5,10.5c1.2,4.2,1.8,8.9,1.8,14.2c0,5-0.7,9.6-2.1,13.8c-1.4,4.2-3.3,7.9-5.8,11c-2.5,3.1-5.5,5.5-8.9,7.3
	c-3.5,1.7-7.3,2.6-11.5,2.6c-2,0-3.7-0.2-5.3-0.6c-1.6-0.4-3-0.9-4.3-1.6c-1.3-0.7-2.5-1.5-3.6-2.5c-1.1-1-2.1-2-3.2-3.2l-0.7,3.3
	c-0.3,1.4-0.8,2.3-1.6,2.8c-0.8,0.5-1.8,0.8-3.1,0.8H259.2z M291.5,43.1c-1.4,0-2.8,0.1-3.9,0.4s-2.3,0.7-3.3,1.2
	c-1,0.5-1.9,1.2-2.8,1.9c-0.8,0.8-1.7,1.7-2.6,2.7v28c1.5,1.7,3.1,2.8,4.8,3.5c1.7,0.7,3.6,1,5.5,1c1.8,0,3.5-0.4,5-1.1
	c1.5-0.7,2.9-1.9,4-3.5c1.1-1.6,2-3.7,2.6-6.2s1-5.6,1-9.3c0-3.5-0.3-6.4-0.8-8.8c-0.5-2.4-1.2-4.3-2.1-5.8c-0.9-1.5-2-2.5-3.3-3.2
	C294.5,43.4,293.1,43.1,291.5,43.1z"/>
<path class="logo-fill" d="M327,95.4V0h19.8v35.1c2.4-2,5-3.7,7.8-4.9c2.8-1.3,6.1-1.9,10-1.9c3.6,0,6.8,0.6,9.6,1.9c2.8,1.3,5.1,3,7.1,5.2
	c1.9,2.2,3.4,4.9,4.3,8c1,3.1,1.5,6.4,1.5,10v42h-19.8v-42c0-3.2-0.7-5.7-2.2-7.5c-1.5-1.8-3.7-2.7-6.6-2.7c-2.2,0-4.2,0.5-6.1,1.4
	c-1.9,0.9-3.7,2.2-5.5,3.8v47.1H327z"/>
<path class="logo-fill" d="M411.5,29.3v41.9c0,3.3,0.7,5.8,2.2,7.6c1.5,1.8,3.7,2.7,6.6,2.7c2.2,0,4.2-0.4,6.1-1.3c1.9-0.9,3.7-2.1,5.5-3.8V29.3h19.8
	v66.1h-12.3c-2.5,0-4.1-1.1-4.9-3.3l-1.2-3.8c-1.3,1.2-2.6,2.3-4,3.3c-1.4,1-2.8,1.8-4.4,2.5c-1.6,0.7-3.2,1.3-5,1.7
	c-1.8,0.4-3.7,0.6-5.9,0.6c-3.6,0-6.8-0.6-9.6-1.9c-2.8-1.3-5.1-3-7.1-5.3c-1.9-2.3-3.4-4.9-4.3-8c-1-3.1-1.5-6.4-1.5-10.1V29.3
	H411.5z"/>
<path class="logo-fill" d="M503.1,43.8c-0.5,0.8-1.1,1.4-1.6,1.7c-0.6,0.3-1.3,0.5-2.2,0.5c-0.9,0-1.9-0.2-2.8-0.6c-0.9-0.4-1.9-0.8-3-1.3
	c-1.1-0.5-2.3-0.9-3.7-1.3c-1.4-0.4-2.9-0.6-4.7-0.6c-2.5,0-4.4,0.5-5.8,1.4c-1.3,1-2,2.3-2,4c0,1.2,0.4,2.3,1.3,3.1
	c0.9,0.8,2,1.5,3.5,2.1c1.4,0.6,3.1,1.2,4.9,1.8c1.8,0.6,3.7,1.2,5.6,1.8c1.9,0.7,3.8,1.5,5.6,2.4c1.8,0.9,3.5,2,4.9,3.4
	c1.4,1.3,2.6,3,3.5,4.9c0.9,1.9,1.3,4.2,1.3,6.9c0,3.3-0.6,6.3-1.8,9c-1.2,2.8-3,5.1-5.3,7.1c-2.4,2-5.3,3.5-8.7,4.7
	c-3.5,1.1-7.5,1.7-12,1.7c-2.3,0-4.5-0.2-6.8-0.6c-2.3-0.4-4.4-1-6.5-1.7c-2.1-0.7-4.1-1.6-5.8-2.6c-1.8-1-3.3-2.1-4.6-3.2L461,81
	c0.6-0.9,1.2-1.5,2-2c0.8-0.5,1.8-0.7,3-0.7c1.1,0,2.2,0.3,3.1,0.8c0.9,0.5,1.9,1.1,3,1.7s2.3,1.1,3.7,1.7c1.4,0.5,3.2,0.8,5.4,0.8
	c1.5,0,2.8-0.2,3.9-0.5c1.1-0.3,1.9-0.8,2.6-1.3c0.6-0.6,1.1-1.2,1.4-1.8c0.3-0.7,0.4-1.4,0.4-2.1c0-1.3-0.4-2.4-1.3-3.2
	c-0.9-0.8-2.1-1.6-3.5-2.2c-1.4-0.6-3.1-1.2-4.9-1.7c-1.9-0.5-3.7-1.1-5.6-1.8c-1.9-0.7-3.8-1.5-5.7-2.5c-1.9-1-3.5-2.2-4.9-3.6
	c-1.4-1.5-2.6-3.3-3.5-5.4c-0.9-2.1-1.3-4.7-1.3-7.7c0-2.8,0.5-5.5,1.6-8c1.1-2.5,2.7-4.7,4.9-6.7c2.2-1.9,4.9-3.4,8.2-4.6
	c3.3-1.1,7.1-1.7,11.5-1.7c2.4,0,4.7,0.2,6.9,0.6c2.2,0.4,4.3,1,6.3,1.8s3.7,1.7,5.4,2.7c1.6,1,3,2.2,4.3,3.4L503.1,43.8z"/>
<path class="logo-fill" d="M543.4,28.3c4.4,0,8.4,0.7,12,2c3.6,1.4,6.8,3.3,9.4,5.9c2.6,2.6,4.7,5.8,6.1,9.5c1.5,3.8,2.2,8,2.2,12.8
	c0,1.5-0.1,2.7-0.2,3.6c-0.1,0.9-0.4,1.7-0.7,2.2c-0.3,0.6-0.8,0.9-1.4,1.1c-0.6,0.2-1.3,0.3-2.2,0.3h-38.2c0.6,5.5,2.3,9.5,5,12
	c2.7,2.5,6.2,3.7,10.5,3.7c2.3,0,4.3-0.3,5.9-0.8c1.7-0.6,3.1-1.2,4.4-1.8c1.3-0.7,2.5-1.3,3.6-1.8c1.1-0.6,2.2-0.8,3.4-0.8
	c1.6,0,2.8,0.6,3.6,1.7l5.7,7.1c-2,2.3-4.2,4.2-6.6,5.7c-2.4,1.5-4.8,2.6-7.3,3.4c-2.5,0.8-5,1.4-7.5,1.7c-2.5,0.3-4.9,0.5-7.1,0.5
	c-4.6,0-9-0.8-13.1-2.3c-4.1-1.5-7.6-3.7-10.7-6.7c-3-3-5.4-6.7-7.2-11.1c-1.8-4.4-2.6-9.6-2.6-15.4c0-4.4,0.8-8.6,2.3-12.6
	s3.7-7.4,6.5-10.4c2.8-3,6.3-5.3,10.3-7.1C533.8,29.2,538.3,28.3,543.4,28.3z M543.8,41.9c-3.8,0-6.7,1.1-8.9,3.2
	c-2.1,2.1-3.5,5.2-4.2,9.3h24.7c0-1.6-0.2-3.1-0.6-4.6c-0.4-1.5-1.1-2.8-2-4c-0.9-1.2-2.1-2.1-3.6-2.8
	C547.7,42.3,545.9,41.9,543.8,41.9z"/>
<path class="logo-fill" d="M602,96.4c-3.1,0-5.9-0.5-8.3-1.4c-2.4-0.9-4.4-2.2-6.1-3.9c-1.6-1.7-2.9-3.7-3.7-6.1c-0.8-2.4-1.3-5-1.3-8V42.9H577
	c-1,0-1.9-0.3-2.6-1c-0.7-0.7-1.1-1.6-1.1-2.9v-7.7l10.5-2l3.9-16.1c0.5-2,2-3.1,4.3-3.1h10.3v19.3h16.1v13.5h-16.1v32.8
	c0,1.5,0.4,2.8,1.1,3.8c0.7,1,1.8,1.5,3.2,1.5c0.7,0,1.3-0.1,1.8-0.2c0.5-0.1,0.9-0.3,1.3-0.5c0.4-0.2,0.7-0.4,1-0.5
	c0.3-0.1,0.7-0.2,1.1-0.2c0.6,0,1.1,0.1,1.4,0.4c0.4,0.3,0.7,0.7,1.1,1.3l6,9.4c-2.6,1.9-5.4,3.3-8.6,4.3
	C608.8,95.9,605.5,96.4,602,96.4z"/>
<path class="logo-fill" d="M636.3,56.4c-8.7,0-15.7,7-15.7,15.6c0,8.6,7,15.6,15.7,15.6c8.7,0,15.7-7,15.7-15.6C652,63.4,645,56.4,636.3,56.4z
	 M644.6,74.3h-2.7v4c0,0.3-0.3,0.6-0.6,0.6h-9.9c-0.3,0-0.6-0.2-0.6-0.6v-4h-2.7c-0.5,0-0.7-0.5-0.4-0.9l8.3-10.9
	c0.2-0.3,0.7-0.3,0.9,0l8.3,10.9C645.3,73.7,645,74.3,644.6,74.3z"/>
</svg>
