<svg xmlns="http://www.w3.org/2000/svg" viewBox="0 0 283.1 41.9" preserveAspectRatio="xMinYMin">
  <defs>
    <style>
      .cls-1 {
        fill: #fff;
      }
    </style>
  </defs>
  <title>Asset 1</title>
  <g id="Layer_2" data-name="Layer 2">
    <g id="Layer_2-2" data-name="Layer 2">
      <g>
        <path class="cls-1" d="M0,1.09H7.86a3.43,3.43,0,0,1,2,.56A2.61,2.61,0,0,1,11,3.13l5.51,21c.17.69.39,1.39.56,2.17s.3,1.61.43,2.43c.17-.87.39-1.69.61-2.43s.43-1.48.65-2.17l6.51-21a2.73,2.73,0,0,1,1.09-1.39,3.12,3.12,0,0,1,2-.61h2.78a3.5,3.5,0,0,1,2,.52,2.66,2.66,0,0,1,1.09,1.48l6.47,21c.22.65.43,1.35.65,2a18.52,18.52,0,0,1,.56,2.34c.13-.82.3-1.61.48-2.34s.3-1.43.48-2.08l5.56-21a2.43,2.43,0,0,1,1-1.39,3.4,3.4,0,0,1,2-.61h7.38L46.37,41.38H37.86l-7.6-25c-.13-.39-.26-.82-.39-1.26s-.26-1-.39-1.48c-.13.52-.26,1-.39,1.48s-.26.87-.39,1.26l-7.77,25H12.46Z"/>
        <path class="cls-1" d="M68.08,12.29a15.25,15.25,0,0,1,5.21.87A11.15,11.15,0,0,1,80,19.84a15.68,15.68,0,0,1,1,5.56A13.93,13.93,0,0,1,80.89,27a2.47,2.47,0,0,1-.3,1,1,1,0,0,1-.61.48,3,3,0,0,1-1,.13H62.44a8.07,8.07,0,0,0,2.17,5.21,6.43,6.43,0,0,0,4.56,1.61A8.7,8.7,0,0,0,71.73,35c.74-.26,1.35-.52,1.91-.78s1.09-.56,1.56-.78a3,3,0,0,1,1.48-.35,1.82,1.82,0,0,1,1.56.74l2.47,3.08a12.76,12.76,0,0,1-2.87,2.47,13.92,13.92,0,0,1-3.17,1.48,17.59,17.59,0,0,1-3.26.74,26.35,26.35,0,0,1-3.08.22,16.5,16.5,0,0,1-5.69-1A13,13,0,0,1,58,37.91a14.46,14.46,0,0,1-3.13-4.82,17.7,17.7,0,0,1-1.13-6.69,15.47,15.47,0,0,1,1-5.47,13.47,13.47,0,0,1,2.82-4.52A13.7,13.7,0,0,1,62,13.33,18.15,18.15,0,0,1,68.08,12.29Zm.17,5.91a5.33,5.33,0,0,0-3.86,1.39,7.29,7.29,0,0,0-1.82,4H73.29a7.64,7.64,0,0,0-.26-2,5,5,0,0,0-.87-1.74,4,4,0,0,0-1.56-1.22A5.36,5.36,0,0,0,68.26,18.19Z"/>
        <path class="cls-1" d="M83.15,41.42V0h8.6V15.76a13.05,13.05,0,0,1,3.65-2.52,10.91,10.91,0,0,1,4.78-1,9.18,9.18,0,0,1,4.17,1,9.72,9.72,0,0,1,3.3,2.82,14.81,14.81,0,0,1,2.17,4.56,22.37,22.37,0,0,1,.78,6.17,18.85,18.85,0,0,1-.91,6,15.17,15.17,0,0,1-2.52,4.78,12.3,12.3,0,0,1-3.86,3.17,11.24,11.24,0,0,1-5,1.13A9.32,9.32,0,0,1,96,41.6a7.92,7.92,0,0,1-1.87-.69,7.74,7.74,0,0,1-1.56-1.09c-.48-.43-.91-.87-1.39-1.39l-.3,1.43a1.76,1.76,0,0,1-.69,1.22,2.47,2.47,0,0,1-1.35.35H83.15Zm14-22.71a6.77,6.77,0,0,0-1.69.17,7,7,0,0,0-1.43.52,7.49,7.49,0,0,0-1.22.82c-.35.35-.74.74-1.13,1.17V33.56a5.58,5.58,0,0,0,2.08,1.52,6.3,6.3,0,0,0,2.39.43A5.13,5.13,0,0,0,98.35,35a4.42,4.42,0,0,0,1.74-1.52,8.11,8.11,0,0,0,1.13-2.69,17.39,17.39,0,0,0,.43-4A18.81,18.81,0,0,0,101.3,23a8.07,8.07,0,0,0-.91-2.52A3.65,3.65,0,0,0,99,19.06,4.49,4.49,0,0,0,97.17,18.71Z"/>
        <path class="cls-1" d="M112.54,41.42V0h8.6V15.76a13.05,13.05,0,0,1,3.65-2.52,10.91,10.91,0,0,1,4.78-1,9.18,9.18,0,0,1,4.17,1,9.72,9.72,0,0,1,3.3,2.82,14.81,14.81,0,0,1,2.17,4.56,22.37,22.37,0,0,1,.78,6.17,18.85,18.85,0,0,1-.91,6,15.17,15.17,0,0,1-2.52,4.78,12.3,12.3,0,0,1-3.86,3.17,11.24,11.24,0,0,1-5,1.13,9.32,9.32,0,0,1-2.3-.26,7.92,7.92,0,0,1-1.87-.69A7.74,7.74,0,0,1,122,39.82c-.48-.43-.91-.87-1.39-1.39l-.3,1.43a1.76,1.76,0,0,1-.69,1.22,2.47,2.47,0,0,1-1.35.35h-5.69Zm14-22.71a6.77,6.77,0,0,0-1.69.17,8.05,8.05,0,0,0-1.43.52,7.49,7.49,0,0,0-1.22.82c-.35.35-.74.74-1.13,1.17V33.56a5.58,5.58,0,0,0,2.08,1.52,6.3,6.3,0,0,0,2.39.43,5.13,5.13,0,0,0,2.17-.48,4.42,4.42,0,0,0,1.74-1.52,8.11,8.11,0,0,0,1.13-2.69,17.39,17.39,0,0,0,.43-4,18.81,18.81,0,0,0-.35-3.82,8.07,8.07,0,0,0-.91-2.52,3.65,3.65,0,0,0-1.43-1.39A4.33,4.33,0,0,0,126.57,18.71Z"/>
        <path class="cls-1" d="M142,41.42V0h8.6V15.24A13.87,13.87,0,0,1,154,13.11a10.2,10.2,0,0,1,4.34-.82,9.79,9.79,0,0,1,4.17.82,9.45,9.45,0,0,1,3.08,2.26,9.24,9.24,0,0,1,1.87,3.47,14,14,0,0,1,.65,4.34V41.42h-8.6V23.19a4.94,4.94,0,0,0-1-3.26,3.52,3.52,0,0,0-2.87-1.17,6.08,6.08,0,0,0-2.65.61A10.26,10.26,0,0,0,150.62,21V41.47H142Z"/>
        <path class="cls-1" d="M178.67,12.72V30.91a5,5,0,0,0,1,3.3,3.52,3.52,0,0,0,2.87,1.17,6,6,0,0,0,2.65-.56,9.09,9.09,0,0,0,2.39-1.65V12.72h8.6v28.7h-5.34A2,2,0,0,1,188.66,40l-.52-1.65a17.88,17.88,0,0,1-1.74,1.43,10.34,10.34,0,0,1-1.91,1.09,10.77,10.77,0,0,1-4.73,1,9.79,9.79,0,0,1-4.17-.82,9,9,0,0,1-3.08-2.3,9.58,9.58,0,0,1-1.87-3.47,14.08,14.08,0,0,1-.65-4.39V12.72Z"/>
        <path class="cls-1" d="M218.44,19a2.3,2.3,0,0,1-.69.74,2.07,2.07,0,0,1-1,.22,3.06,3.06,0,0,1-1.22-.26c-.39-.17-.82-.35-1.3-.56a11.48,11.48,0,0,0-1.61-.56,7.28,7.28,0,0,0-2-.26,4.59,4.59,0,0,0-2.52.61,2.08,2.08,0,0,0-.87,1.74,1.74,1.74,0,0,0,.56,1.35,5,5,0,0,0,1.52.91c.61.26,1.35.52,2.13.78l2.43.78a24.09,24.09,0,0,1,2.43,1A8.11,8.11,0,0,1,218.44,27a6.58,6.58,0,0,1,2.08,5.12,9.52,9.52,0,0,1-.78,3.91,8.46,8.46,0,0,1-2.3,3.08,12.08,12.08,0,0,1-3.78,2,17.35,17.35,0,0,1-5.21.74,17,17,0,0,1-3-.26,19.19,19.19,0,0,1-2.82-.74,13.39,13.39,0,0,1-2.52-1.13,12.37,12.37,0,0,1-2-1.39l2-3.21a2.76,2.76,0,0,1,.87-.87,2.41,2.41,0,0,1,1.3-.3,2.82,2.82,0,0,1,1.35.35c.39.22.82.48,1.3.74s1,.48,1.61.74a7,7,0,0,0,2.34.35,6.42,6.42,0,0,0,1.69-.22,3.43,3.43,0,0,0,1.13-.56,3.19,3.19,0,0,0,.61-.78,2.27,2.27,0,0,0,.17-.91A1.77,1.77,0,0,0,212,32.3a5.7,5.7,0,0,0-1.52-1,17.23,17.23,0,0,0-2.13-.74c-.82-.22-1.61-.48-2.43-.78a20.43,20.43,0,0,1-2.47-1.09,8.7,8.7,0,0,1-2.13-1.56,8.09,8.09,0,0,1-1.52-2.34,8.55,8.55,0,0,1-.56-3.34A8.3,8.3,0,0,1,202,15.11a11.21,11.21,0,0,1,3.56-2,15.71,15.71,0,0,1,5-.74,16.73,16.73,0,0,1,3,.26,14.17,14.17,0,0,1,2.74.78,16.87,16.87,0,0,1,2.34,1.17,12.71,12.71,0,0,1,1.87,1.48Z"/>
        <path class="cls-1" d="M235.94,12.29a15.25,15.25,0,0,1,5.21.87,11.15,11.15,0,0,1,6.73,6.69,14.92,14.92,0,0,1,1,5.56,13.92,13.92,0,0,1-.09,1.56,2.47,2.47,0,0,1-.3,1,1,1,0,0,1-.61.48,3,3,0,0,1-1,.13H230.3a8.07,8.07,0,0,0,2.17,5.21A6.43,6.43,0,0,0,237,35.34a8.7,8.7,0,0,0,2.56-.35c.74-.26,1.35-.52,1.91-.78s1.09-.56,1.56-.78a3,3,0,0,1,1.48-.35,1.82,1.82,0,0,1,1.56.74l2.47,3.08a12.76,12.76,0,0,1-2.87,2.47,13.92,13.92,0,0,1-3.17,1.48,17.59,17.59,0,0,1-3.26.74,26.35,26.35,0,0,1-3.08.22,16.5,16.5,0,0,1-5.69-1,13,13,0,0,1-4.65-2.91,14.46,14.46,0,0,1-3.13-4.82,17.7,17.7,0,0,1-1.13-6.69,15.47,15.47,0,0,1,1-5.47,13.47,13.47,0,0,1,2.82-4.52,13.7,13.7,0,0,1,4.47-3.08A18,18,0,0,1,235.94,12.29Zm.17,5.91a5.33,5.33,0,0,0-3.86,1.39,7.29,7.29,0,0,0-1.82,4h10.72a7.64,7.64,0,0,0-.26-2,5,5,0,0,0-.87-1.74,4,4,0,0,0-1.56-1.22A5.5,5.5,0,0,0,236.12,18.19Z"/>
        <path class="cls-1" d="M261.39,41.86a10.27,10.27,0,0,1-3.6-.61,7.3,7.3,0,0,1-2.65-1.69,7.12,7.12,0,0,1-1.61-2.65,10.78,10.78,0,0,1-.56-3.47V18.63h-2.43a1.54,1.54,0,0,1-1.13-.43,1.67,1.67,0,0,1-.48-1.26V13.59l4.56-.87,1.69-7A1.74,1.74,0,0,1,257,4.39h4.47v8.38h7v5.86h-7V32.87a2.85,2.85,0,0,0,.48,1.65,1.6,1.6,0,0,0,1.39.65,3.89,3.89,0,0,0,.78-.09,2.18,2.18,0,0,0,.56-.22,4,4,0,0,1,.43-.22,1.56,1.56,0,0,1,.48-.09.85.85,0,0,1,.61.17,2.16,2.16,0,0,1,.48.56l2.61,4.08a12.55,12.55,0,0,1-3.73,1.87A14.3,14.3,0,0,1,261.39,41.86Z"/>
        <path class="cls-1" d="M276.28,24.49a6.77,6.77,0,1,0,6.82,6.77A6.79,6.79,0,0,0,276.28,24.49Zm3.6,7.77h-1.17V34a.28.28,0,0,1-.26.26h-4.3a.25.25,0,0,1-.26-.26V32.26h-1.17a.23.23,0,0,1-.17-.39l3.6-4.73a.24.24,0,0,1,.39,0l3.6,4.73C280.19,32,280.06,32.26,279.88,32.26Z"/>
      </g>
    </g>
  </g>
</svg>
